# xmcd
#
# Track frame offsets: 
#        150
#        6959
#        31231
#        44427
#        70676
#        81044
#        94013
#        112523
#        128231
#        141066
#        165235
#        179118
#        194816
#        206315
#
# Disc length: 2983 seconds
#
# Revision: 0
# Processed by: cddbd v1.5.2PL0 Copyright (c) Steve Scherf et al.
# Submitted via: ExactAudioCopy v0.99pb3
#
DISCID=b40ba50e
DTITLE=Tom Waits - Live In Denver, 1974
DYEAR=1900
DGENRE=Blues
TTITLE0=Introduction
TTITLE1=I Hope That I Don't Fall In Love With You
TTITLE2=San Diego Serenade
TTITLE3=Good Night Loving Trail
TTITLE4=Diamonds On My  Eindshield
TTITLE5=Ice Cream Man
TTITLE6=Please Call Me Baby
TTITLE7=Better Off Without A Wife
TTITLE8=The Ghost Of Saturday Night
TTITLE9=Big Joe And Phantom 309
TTITLE10=Semi Suite
TTITLE11=Ol' '55
TTITLE12=On A Foggy Night
TTITLE13=Martha
EXTD=
EXTT0=
EXTT1=
EXTT2=
EXTT3=
EXTT4=
EXTT5=
EXTT6=
EXTT7=
EXTT8=
EXTT9=
EXTT10=
EXTT11=
EXTT12=
EXTT13=
PLAYORDER=
